<svg width="110" height="33" viewBox="0 0 110 33" fill="none" xmlns="http://www.w3.org/2000/svg">
<path d="M46.6 12.368V15.248H43.168V26.108H46.6V29H35.8V26.108H39.232V15.248H35.8V12.368H46.6ZM62.0226 24.14C62.0226 25.172 61.7506 26.084 61.2066 26.876C60.6706 27.668 59.8986 28.288 58.8906 28.736C57.8826 29.184 56.6706 29.408 55.2546 29.408C53.6866 29.408 52.3706 29.18 51.3066 28.724C50.2506 28.26 49.3746 27.688 48.6786 27.008L50.6706 24.8C51.2866 25.336 51.9666 25.752 52.7106 26.048C53.4546 26.336 54.2706 26.48 55.1586 26.48C55.7106 26.48 56.1946 26.4 56.6106 26.24C57.0266 26.08 57.3506 25.848 57.5826 25.544C57.8146 25.24 57.9306 24.872 57.9306 24.44C57.9306 24.032 57.8386 23.688 57.6546 23.408C57.4706 23.128 57.1586 22.876 56.7186 22.652C56.2866 22.428 55.6826 22.2 54.9066 21.968C53.6106 21.568 52.5666 21.128 51.7746 20.648C50.9906 20.168 50.4186 19.612 50.0586 18.98C49.7066 18.348 49.5306 17.612 49.5306 16.772C49.5306 15.756 49.8106 14.888 50.3706 14.168C50.9386 13.448 51.6986 12.9 52.6506 12.524C53.6026 12.14 54.6506 11.948 55.7946 11.948C57.0826 11.948 58.2186 12.136 59.2026 12.512C60.1866 12.88 61.0386 13.408 61.7586 14.096L59.8986 16.232C59.3386 15.76 58.7346 15.412 58.0866 15.188C57.4386 14.956 56.7786 14.84 56.1066 14.84C55.6106 14.84 55.1746 14.904 54.7986 15.032C54.4226 15.152 54.1306 15.332 53.9226 15.572C53.7146 15.812 53.6106 16.112 53.6106 16.472C53.6106 16.824 53.7106 17.12 53.9106 17.36C54.1106 17.6 54.4586 17.828 54.9546 18.044C55.4506 18.252 56.1386 18.496 57.0186 18.776C58.0666 19.096 58.9626 19.48 59.7066 19.928C60.4586 20.368 61.0306 20.924 61.4226 21.596C61.8226 22.268 62.0226 23.116 62.0226 24.14ZM72.4893 20.6C72.4893 19.48 72.3933 18.568 72.2013 17.864C72.0173 17.16 71.7573 16.616 71.4213 16.232C71.0933 15.848 70.7053 15.584 70.2573 15.44C69.8093 15.296 69.3253 15.224 68.8053 15.224H67.9653V26.156H68.8053C69.3493 26.156 69.8453 26.072 70.2933 25.904C70.7493 25.728 71.1413 25.436 71.4693 25.028C71.7973 24.612 72.0493 24.044 72.2253 23.324C72.4013 22.604 72.4893 21.696 72.4893 20.6ZM76.5693 20.6C76.5693 21.952 76.4253 23.112 76.1373 24.08C75.8493 25.04 75.4453 25.84 74.9253 26.48C74.4133 27.12 73.8173 27.624 73.1373 27.992C72.4573 28.36 71.7253 28.62 70.9413 28.772C70.1573 28.924 69.3493 29 68.5173 29H64.0293V12.368H68.2293C69.2933 12.368 70.3213 12.48 71.3133 12.704C72.3133 12.92 73.2053 13.324 73.9893 13.916C74.7812 14.5 75.4093 15.332 75.8733 16.412C76.3373 17.484 76.5693 18.88 76.5693 20.6ZM91.0319 20.672C91.0319 22.432 90.7799 23.968 90.2759 25.28C89.7719 26.584 89.0239 27.6 88.0319 28.328C87.0479 29.048 85.8279 29.408 84.3719 29.408C82.9239 29.408 81.7039 29.056 80.7119 28.352C79.7199 27.64 78.9719 26.632 78.4679 25.328C77.9639 24.024 77.7119 22.472 77.7119 20.672C77.7119 18.912 77.9639 17.38 78.4679 16.076C78.9719 14.772 79.7199 13.76 80.7119 13.04C81.7039 12.312 82.9239 11.948 84.3719 11.948C85.8279 11.948 87.0479 12.3 88.0319 13.004C89.0239 13.708 89.7719 14.712 90.2759 16.016C90.7799 17.32 91.0319 18.872 91.0319 20.672ZM86.9999 20.672C86.9999 18.624 86.7959 17.136 86.3879 16.208C85.9799 15.28 85.3079 14.816 84.3719 14.816C83.4359 14.816 82.7639 15.284 82.3559 16.22C81.9479 17.148 81.7439 18.632 81.7439 20.672C81.7439 22.72 81.9519 24.208 82.3679 25.136C82.7839 26.064 83.4519 26.528 84.3719 26.528C85.3319 26.528 86.0079 26.06 86.3999 25.124C86.7999 24.18 86.9999 22.696 86.9999 20.672ZM100.155 11.948C101.347 11.948 102.359 12.108 103.191 12.428C104.031 12.74 104.799 13.184 105.495 13.76L103.562 16.088C103.107 15.712 102.603 15.416 102.051 15.2C101.499 14.976 100.899 14.864 100.251 14.864C99.5545 14.864 98.9185 15.064 98.3425 15.464C97.7665 15.856 97.3065 16.48 96.9625 17.336C96.6185 18.184 96.4465 19.288 96.4465 20.648C96.4465 21.984 96.6105 23.076 96.9385 23.924C97.2745 24.764 97.7345 25.384 98.3185 25.784C98.9025 26.176 99.5705 26.372 100.323 26.372C101.155 26.372 101.847 26.216 102.399 25.904C102.951 25.592 103.459 25.252 103.923 24.884L105.711 27.164C105.087 27.78 104.319 28.308 103.407 28.748C102.495 29.188 101.395 29.408 100.107 29.408C98.6025 29.408 97.2665 29.076 96.0985 28.412C94.9385 27.74 94.0265 26.756 93.3625 25.46C92.7065 24.156 92.3785 22.552 92.3785 20.648C92.3785 18.792 92.7185 17.216 93.3985 15.92C94.0865 14.624 95.0185 13.64 96.1945 12.968C97.3705 12.288 98.6905 11.948 100.155 11.948Z" fill="#595959"/>
<rect y="4" width="33" height="29" rx="10" fill="#2EC150"/>
<path d="M19.424 25.992H15.616L14.368 33H8.608L12.672 9.96H22.432C24.8427 9.96 26.56 10.5147 27.584 11.624C28.3307 12.4773 28.704 13.5653 28.704 14.888C28.704 15.336 28.6613 15.8053 28.576 16.296L27.936 19.912C27.616 21.6827 26.6773 23.144 25.12 24.296C23.5627 25.4267 21.664 25.992 19.424 25.992ZM20.416 14.952H17.536L16.48 21H19.328C21.0773 21 22.0907 20.2213 22.368 18.664L22.592 17.352C22.6347 17.16 22.656 16.904 22.656 16.584C22.656 16.264 22.496 15.912 22.176 15.528C21.856 15.144 21.2693 14.952 20.416 14.952Z" fill="white"/>
</svg>
