<svg width="110" height="33" viewBox="0 0 110 33" fill="none" xmlns="http://www.w3.org/2000/svg">
<path d="M46.6 11.368V14.248H43.168V25.108H46.6V28H35.8V25.108H39.232V14.248H35.8V11.368H46.6ZM62.0226 23.14C62.0226 24.172 61.7506 25.084 61.2066 25.876C60.6706 26.668 59.8986 27.288 58.8906 27.736C57.8826 28.184 56.6706 28.408 55.2546 28.408C53.6866 28.408 52.3706 28.18 51.3066 27.724C50.2506 27.26 49.3746 26.688 48.6786 26.008L50.6706 23.8C51.2866 24.336 51.9666 24.752 52.7106 25.048C53.4546 25.336 54.2706 25.48 55.1586 25.48C55.7106 25.48 56.1946 25.4 56.6106 25.24C57.0266 25.08 57.3506 24.848 57.5826 24.544C57.8146 24.24 57.9306 23.872 57.9306 23.44C57.9306 23.032 57.8386 22.688 57.6546 22.408C57.4706 22.128 57.1586 21.876 56.7186 21.652C56.2866 21.428 55.6826 21.2 54.9066 20.968C53.6106 20.568 52.5666 20.128 51.7746 19.648C50.9906 19.168 50.4186 18.612 50.0586 17.98C49.7066 17.348 49.5306 16.612 49.5306 15.772C49.5306 14.756 49.8106 13.888 50.3706 13.168C50.9386 12.448 51.6986 11.9 52.6506 11.524C53.6026 11.14 54.6506 10.948 55.7946 10.948C57.0826 10.948 58.2186 11.136 59.2026 11.512C60.1866 11.88 61.0386 12.408 61.7586 13.096L59.8986 15.232C59.3386 14.76 58.7346 14.412 58.0866 14.188C57.4386 13.956 56.7786 13.84 56.1066 13.84C55.6106 13.84 55.1746 13.904 54.7986 14.032C54.4226 14.152 54.1306 14.332 53.9226 14.572C53.7146 14.812 53.6106 15.112 53.6106 15.472C53.6106 15.824 53.7106 16.12 53.9106 16.36C54.1106 16.6 54.4586 16.828 54.9546 17.044C55.4506 17.252 56.1386 17.496 57.0186 17.776C58.0666 18.096 58.9626 18.48 59.7066 18.928C60.4586 19.368 61.0306 19.924 61.4226 20.596C61.8226 21.268 62.0226 22.116 62.0226 23.14ZM72.4893 19.6C72.4893 18.48 72.3933 17.568 72.2013 16.864C72.0173 16.16 71.7573 15.616 71.4213 15.232C71.0933 14.848 70.7053 14.584 70.2573 14.44C69.8093 14.296 69.3253 14.224 68.8053 14.224H67.9653V25.156H68.8053C69.3493 25.156 69.8453 25.072 70.2933 24.904C70.7493 24.728 71.1413 24.436 71.4693 24.028C71.7973 23.612 72.0493 23.044 72.2253 22.324C72.4013 21.604 72.4893 20.696 72.4893 19.6ZM76.5693 19.6C76.5693 20.952 76.4253 22.112 76.1373 23.08C75.8493 24.04 75.4453 24.84 74.9253 25.48C74.4133 26.12 73.8173 26.624 73.1373 26.992C72.4573 27.36 71.7253 27.62 70.9413 27.772C70.1573 27.924 69.3493 28 68.5173 28H64.0293V11.368H68.2293C69.2933 11.368 70.3213 11.48 71.3133 11.704C72.3133 11.92 73.2053 12.324 73.9893 12.916C74.7812 13.5 75.4093 14.332 75.8733 15.412C76.3373 16.484 76.5693 17.88 76.5693 19.6ZM91.0319 19.672C91.0319 21.432 90.7799 22.968 90.2759 24.28C89.7719 25.584 89.0239 26.6 88.0319 27.328C87.0479 28.048 85.8279 28.408 84.3719 28.408C82.9239 28.408 81.7039 28.056 80.7119 27.352C79.7199 26.64 78.9719 25.632 78.4679 24.328C77.9639 23.024 77.7119 21.472 77.7119 19.672C77.7119 17.912 77.9639 16.38 78.4679 15.076C78.9719 13.772 79.7199 12.76 80.7119 12.04C81.7039 11.312 82.9239 10.948 84.3719 10.948C85.8279 10.948 87.0479 11.3 88.0319 12.004C89.0239 12.708 89.7719 13.712 90.2759 15.016C90.7799 16.32 91.0319 17.872 91.0319 19.672ZM86.9999 19.672C86.9999 17.624 86.7959 16.136 86.3879 15.208C85.9799 14.28 85.3079 13.816 84.3719 13.816C83.4359 13.816 82.7639 14.284 82.3559 15.22C81.9479 16.148 81.7439 17.632 81.7439 19.672C81.7439 21.72 81.9519 23.208 82.3679 24.136C82.7839 25.064 83.4519 25.528 84.3719 25.528C85.3319 25.528 86.0079 25.06 86.3999 24.124C86.7999 23.18 86.9999 21.696 86.9999 19.672ZM100.155 10.948C101.347 10.948 102.359 11.108 103.191 11.428C104.031 11.74 104.799 12.184 105.495 12.76L103.562 15.088C103.107 14.712 102.603 14.416 102.051 14.2C101.499 13.976 100.899 13.864 100.251 13.864C99.5545 13.864 98.9185 14.064 98.3425 14.464C97.7665 14.856 97.3065 15.48 96.9625 16.336C96.6185 17.184 96.4465 18.288 96.4465 19.648C96.4465 20.984 96.6105 22.076 96.9385 22.924C97.2745 23.764 97.7345 24.384 98.3185 24.784C98.9025 25.176 99.5705 25.372 100.323 25.372C101.155 25.372 101.847 25.216 102.399 24.904C102.951 24.592 103.459 24.252 103.923 23.884L105.711 26.164C105.087 26.78 104.319 27.308 103.407 27.748C102.495 28.188 101.395 28.408 100.107 28.408C98.6025 28.408 97.2665 28.076 96.0985 27.412C94.9385 26.74 94.0265 25.756 93.3625 24.46C92.7065 23.156 92.3785 21.552 92.3785 19.648C92.3785 17.792 92.7185 16.216 93.3985 14.92C94.0865 13.624 95.0185 12.64 96.1945 11.968C97.3705 11.288 98.6905 10.948 100.155 10.948Z" fill="#595959"/>
<rect y="3" width="32" height="29" rx="10" fill="#2EC150"/>
<path d="M18.424 25.992H14.616L13.368 33H7.608L11.672 9.96H21.432C23.8427 9.96 25.56 10.5147 26.584 11.624C27.3307 12.4773 27.704 13.5653 27.704 14.888C27.704 15.336 27.6613 15.8053 27.576 16.296L26.936 19.912C26.616 21.6827 25.6773 23.144 24.12 24.296C22.5627 25.4267 20.664 25.992 18.424 25.992ZM19.416 14.952H16.536L15.48 21H18.328C20.0773 21 21.0907 20.2213 21.368 18.664L21.592 17.352C21.6347 17.16 21.656 16.904 21.656 16.584C21.656 16.264 21.496 15.912 21.176 15.528C20.856 15.144 20.2693 14.952 19.416 14.952Z" fill="white"/>
</svg>
