<svg width="18" height="18" viewBox="0 0 18 18" fill="none" xmlns="http://www.w3.org/2000/svg">
<path d="M11.5255 9.36554C13.393 9.91152 15.0333 11.048 16.2006 12.6047C17.3678 14.1613 17.9992 16.0543 18 18H0C0.000392086 16.0542 0.631571 14.161 1.79888 12.6042C2.9662 11.0475 4.60673 9.91112 6.47446 9.36554L9 13.1538L11.5255 9.36554ZM13.5 4.5C13.5 5.69347 13.0259 6.83807 12.182 7.68198C11.3381 8.52589 10.1935 9 9 9C7.80653 9 6.66193 8.52589 5.81802 7.68198C4.97411 6.83807 4.5 5.69347 4.5 4.5C4.5 3.30653 4.97411 2.16193 5.81802 1.31802C6.66193 0.474106 7.80653 0 9 0C10.1935 0 11.3381 0.474106 12.182 1.31802C13.0259 2.16193 13.5 3.30653 13.5 4.5Z" fill="white"/>
</svg>
